<svg id="Calque_1" data-name="Calque 1" xmlns="http://www.w3.org/2000/svg" viewBox="0 0 447 447"><defs><style>.cls-1{fill:#ccc;}.cls-2,.cls-6,.cls-7{fill:#666;}.cls-2,.cls-7{stroke:#666;}.cls-2,.cls-3,.cls-7{stroke-miterlimit:10;}.cls-2{stroke-width:30px;}.cls-3{fill:none;stroke:#ccc;stroke-width:10px;}.cls-4{fill:#333;}.cls-5{fill:#b3b3b3;}</style></defs><title>plusflatSans titre - 1</title><circle class="cls-1" cx="223.5" cy="223.5" r="223.5"/><line class="cls-2" x1="219.5" y1="223.49" x2="219.5" y2="383.49"/><line class="cls-2" x1="219.5" y1="63.49" x2="219.5" y2="223.49"/><line class="cls-2" x1="59.5" y1="223.5" x2="219.5" y2="223.5"/><line class="cls-2" x1="219.5" y1="223.49" x2="379.5" y2="223.49"/><circle class="cls-3" cx="219.5" cy="83.25" r="19.75"/><circle class="cls-3" cx="79.25" cy="223.5" r="19.75"/><circle class="cls-3" cx="359.75" cy="223.49" r="19.75"/><circle class="cls-3" cx="219.5" cy="363.75" r="19.75"/><path class="cls-4" d="M146,248.5H135c-3.22,0-3.22,5,0,5h11c3.22,0,3.22-5,0-5Z" transform="translate(-30.5 -26.51)"/><path class="cls-5" d="M146.42,246.16l-30.1,4.32c-3.17.46-1.82,5.27,1.33,4.82l30.1-4.32c3.17-.46,1.82-5.27-1.33-4.82Z" transform="translate(-30.5 -26.51)"/><path class="cls-5" d="M131,255.6a38.69,38.69,0,0,1,12.39.51c3.14.65,4.48-4.17,1.33-4.82A42.87,42.87,0,0,0,131,250.6c-3.16.36-3.2,5.37,0,5Z" transform="translate(-30.5 -26.51)"/><path class="cls-5" d="M156,248.58a60.94,60.94,0,0,0-16.69.84c-3.16.59-1.82,5.41,1.33,4.82a56.11,56.11,0,0,1,15.36-.66c3.2.29,3.18-4.71,0-5Z" transform="translate(-30.5 -26.51)"/><path class="cls-5" d="M132.66,258.64a20.94,20.94,0,0,0-10.35.87c-3,1.07-1.71,5.9,1.33,4.82a15.7,15.7,0,0,1,7.69-.87,2.58,2.58,0,0,0,3.08-1.75,2.52,2.52,0,0,0-1.75-3.08Z" transform="translate(-30.5 -26.51)"/><path class="cls-5" d="M133,255.58l-13-1.23c-3.2-.3-3.18,4.7,0,5l13,1.23c3.2.3,3.18-4.7,0-5Z" transform="translate(-30.5 -26.51)"/><path class="cls-5" d="M125,257.5h11c3.22,0,3.22-5,0-5H125c-3.22,0-3.22,5,0,5Z" transform="translate(-30.5 -26.51)"/><path class="cls-5" d="M140.11,252.18l-18.86-8.33c-2.92-1.29-5.46,3-2.52,4.32l18.86,8.33c2.92,1.29,5.46-3,2.52-4.32Z" transform="translate(-30.5 -26.51)"/><path class="cls-5" d="M122,248.41l12,1.23c3.2.33,3.17-4.67,0-5l-12-1.23c-3.2-.33-3.17,4.67,0,5Z" transform="translate(-30.5 -26.51)"/><path class="cls-5" d="M139.75,244.28l-17-4.87c-3.1-.89-4.42,3.94-1.33,4.82l17,4.87c3.1.89,4.42-3.94,1.33-4.82Z" transform="translate(-30.5 -26.51)"/><path class="cls-5" d="M120,244.54a68.07,68.07,0,0,1,16.34.84c3.15.55,4.5-4.26,1.33-4.82a73.56,73.56,0,0,0-17.67-1c-3.19.21-3.22,5.21,0,5Z" transform="translate(-30.5 -26.51)"/><path class="cls-5" d="M136,237.38l-15,1.23c-3.18.26-3.21,5.26,0,5l15-1.23c3.18-.26,3.21-5.26,0-5Z" transform="translate(-30.5 -26.51)"/><path class="cls-5" d="M117,241.49a36.29,36.29,0,0,1,12.39,1.76c3.07,1,4.38-3.84,1.33-4.82A40.55,40.55,0,0,0,117,236.49c-3.21.1-3.22,5.1,0,5Z" transform="translate(-30.5 -26.51)"/><rect class="cls-6" x="81.06" y="208.52" width="53.75" height="29.97"/><rect class="cls-7" x="302.75" y="208.74" width="53.75" height="29.5"/><rect class="cls-7" x="223.13" y="351.13" width="53.75" height="29.5" transform="translate(585.38 89.37) rotate(90)"/><rect class="cls-7" x="223.12" y="121.88" width="53.75" height="29.5" transform="translate(356.13 -139.87) rotate(90)"/></svg>